<?xml version="1.0" encoding="UTF-8"?><svg id="Layer_2" xmlns="http://www.w3.org/2000/svg" viewBox="0 0 744.43 830.01"><defs><style>.cls-1{fill:#768439;}.cls-1,.cls-2,.cls-3,.cls-4,.cls-5,.cls-6,.cls-7,.cls-8{stroke-width:0px;}.cls-2{fill:#566813;}.cls-3{fill:#fd9027;}.cls-4{fill:#76921e;}.cls-5{fill:#e37b21;}.cls-6{fill:#fda147;}.cls-7{fill:#f08624;}.cls-8{fill:#849a31;}</style></defs><g id="Layer_2-2"><path class="cls-3" d="m123.15,254s49.22-95.7,147.65-137.62,198.68-52.86,257.01-30.08c58.33,22.78,170.43,83.85,208.71,237.87s-74.73,298.03-74.73,298.03c0,0-98.43,94.78-280.71,78.38-182.28-16.41-205.97-70.18-257.92-140.35s-42.84-179.54-42.84-179.54c0,0,11.85-72,42.84-126.68Z"/><path class="cls-6" d="m449.32,183.19s-6.38-67.44,59.24-63.8,146.73,84.76,146.73,84.76c0,0,53.77,76.95,7.29,159.69s-99.34,67.88-117.57,24.73c-18.23-43.15.91-58.65-67.44-146.14,0,0-29.82-37.51-28.25-59.24Z"/><path class="cls-7" d="m449.15,639.8c-1.03-30.09-62.72-20.96-113.75-27.34s-94.78-64.71-94.78-64.71c-92.96-61.97-71.09,30.08-71.09,30.08,0,0,26.43,79.29,174.99,95.7,0,0,106.29,14.58,104.64-33.72Z"/><path class="cls-5" d="m315.16,138.08s51.26,1.43,97.18-30.99c0,0,25.18.91,0,26.89s-90.8,8.66-97.18,4.1Z"/><path class="cls-7" d="m412.06,106.18s-11.96-10.03-35.66,4.1c-23.7,14.13-45.57,6.38-45.57,6.38,0,0-34.18,3.19-17.32,22.78,0,0,48.76,9.11,75.65-8.2,26.89-17.32,22.9-25.06,22.9-25.06Z"/><path class="cls-1" d="m351.8,134.43s26.43-1.97,31.44-12.15c0,0-9.11-42.25-9.11-47.63s-8.2-42.75-6.61-56.42c0,0-24.44-6.84-27.37,1.82s2.08,12.3,2.08,20.51-.91,22.78,3.19,30.53,7.29,22.78,5.01,28.25c0,0,1.82,2.73-20.05-13.67l-10.48,5.47s21.87,24.15,31.9,43.29Z"/><path class="cls-8" d="m0,0s110.73,13.22,173.62,10.48,162.23,43.75,166.33,67.9-56.05,32.35-74.28,34.63-109.01,3.65-185.97-44.2S0,0,0,0Z"/><path class="cls-4" d="m0,0s.44.16,1.27.47c13.33,4.87,128.65,46.32,190.13,46.32,0,0,39.19-.91,84.15,18.84s64.41,12.76,64.41,12.76c0,0,11.62,28.71-84.3,35.5C181.92,119.11,64.58,87.7,0,0Z"/><path class="cls-2" d="m355.54,30.59s10.33-1.97,5.47-8.05c0,0,.46-2.89-9.72-1.52,0,0-2.73.63-5.77-.37l-1.82,2.04s-.61,5.77,11.85,7.9Z"/><path class="cls-6" d="m165.02,783.36c-.1-1.5-.2-3.02-.3-4.58-.1-1.55-.25-3.08-.45-4.58v-1.2c0-.4.05-.8.15-1.2.2-1.4.38-2.8.52-4.2.15-1.4.32-2.8.53-4.2.2-1.2.38-2.4.52-3.6.15-1.2.32-2.4.52-3.6.1-.2.15-.42.15-.67s.05-.47.15-.67c.7-1.1,1.17-2.25,1.43-3.45.25-1.2.62-2.4,1.12-3.6.1-.3.25-.85.45-1.65.1-.6.25-1.17.45-1.72.2-.55.45-1.12.75-1.73.2-.5.38-.95.52-1.35.15-.4.32-.85.52-1.35.7-2.2,1.75-4.3,3.15-6.3.6-1,1.25-1.95,1.95-2.85.7-.9,1.4-1.8,2.1-2.7,2.1-2.4,4.45-4.6,7.05-6.6,1.4-.9,3.1-1.8,5.1-2.7,1.4-.5,2.77-.92,4.12-1.28,1.35-.35,2.72-.62,4.12-.83,1.1-.2,2.18-.35,3.23-.45,1.05-.1,2.12-.1,3.23,0,1.7.2,3.4.35,5.1.45,1.7.1,3.4.25,5.1.45,2.9.2,5.2,1.2,6.9,3,1.7,1.7,3.3,3.45,4.8,5.25.9,1.1,1.5,2.3,1.8,3.6.2.4.32.78.38,1.12.05.35.17.73.38,1.12.4.7.68,1.38.83,2.02.15.65.27,1.38.38,2.17,0,1.1.05,2.23.15,3.38.1,1.15.2,2.28.3,3.38,0,1-.05,1.75-.15,2.25-.3,2.3-1.65,3.65-4.05,4.05-.8.2-1.65.33-2.55.38-.9.05-1.8.13-2.7.22-1,0-1.83-.25-2.48-.75-.65-.5-1.23-1.1-1.73-1.8-.4-.5-.6-1.2-.6-2.1v-3.6c0-1.2-.05-2.4-.15-3.6-.3-2-.75-4.2-1.35-6.6-.5-1.4-1.08-2.7-1.73-3.9-.65-1.2-1.38-2.4-2.18-3.6-1.9-2.5-4.3-3.45-7.2-2.85-1.3.3-2.5.7-3.6,1.2-1.1.5-2.15,1.15-3.15,1.95-.8.7-1.58,1.33-2.33,1.88-.75.55-1.42,1.23-2.02,2.03-1.1,1.4-2.2,2.83-3.3,4.28-1.1,1.45-2.05,3.03-2.85,4.72-.3.5-.58,1.05-.83,1.65-.25.6-.52,1.2-.82,1.8l-.45.9c-.8,1.2-1.4,2.48-1.8,3.83-.4,1.35-.85,2.68-1.35,3.98-.1.2-.25.6-.45,1.2-.2,1.1-.45,2.2-.75,3.3-.3,1.1-.55,2.2-.75,3.3-.2.8-.35,1.35-.45,1.65-.5,1.3-.83,2.6-.98,3.9-.15,1.3-.28,2.6-.38,3.9,0,1.7-.05,3.35-.15,4.95-.1,1.6-.25,3.25-.45,4.95-.1.9-.1,1.8,0,2.7.1.9.25,1.85.45,2.85.2,1.3.45,2.6.75,3.9.3,1.3.6,2.65.9,4.05,0,.1.1.45.3,1.05.4,1,.77,2.03,1.12,3.08.35,1.05.83,2.03,1.43,2.92.6,1.1,1.25,2.2,1.95,3.3.7,1.1,1.5,2.15,2.4,3.15.5.6,1.15,1.1,1.95,1.5,1.3.7,2.45,1.45,3.45,2.25.8.7,1.37,1,1.72.9.35-.1,1.02-.1,2.03,0,.7,0,1.17.05,1.42.15.25.1.47.18.67.23.2.05.42.08.68.08s.67-.1,1.27-.3c1-.2,1.55-.3,1.65-.3s.6-.3,1.5-.9c.2-.2.45-.38.75-.53.3-.15.6-.27.9-.38,1.6-.7,3-1.75,4.2-3.15.5-.5.98-.97,1.42-1.42.45-.45.92-.92,1.43-1.42.3-.4.57-.77.82-1.12.25-.35.47-.67.68-.97.2-.2.32-.4.38-.6.05-.2.17-.4.38-.6.6-.6,1.07-1.3,1.42-2.1.35-.8.68-1.6.98-2.4.6-2.3,2.1-3.9,4.5-4.8,1.9-.7,3.5-.3,4.8,1.2.8,1,.95,1.95.45,2.85-.7,1.4-1.35,2.77-1.95,4.12-.6,1.35-1.35,2.68-2.25,3.97-.5.8-1.08,1.5-1.72,2.1-.65.6-1.33,1.15-2.03,1.65-1.5,1.1-2.9,2.2-4.2,3.3-1.5,1.3-3.3,2.3-5.4,3-1.1.3-1.73.43-1.88.38-.15-.05-.73.18-1.73.68-.3.2-.65.33-1.05.38-.4.05-.8.13-1.2.22-1.6.2-2.83.38-3.68.53-.85.15-2.02.33-3.52.52h-.75c-1.1-.1-1.98-.17-2.62-.22-.65-.05-1.27-.1-1.88-.15-.6-.05-1.25-.15-1.95-.3-.7-.15-1.55-.38-2.55-.67-2-.7-4.25-1.7-6.75-3-1.1-.6-2.13-1.28-3.07-2.03-.95-.75-1.93-1.47-2.93-2.17-2.1-1.6-3.7-3.75-4.8-6.45-.5-1.3-1-2.6-1.5-3.9-.5-1.3-1.05-2.65-1.65-4.05-.7-1.8-1.1-3.6-1.2-5.4Z"/><path class="cls-6" d="m235.67,803.16c-.2-.9-.33-1.77-.38-2.62-.05-.85-.13-1.72-.23-2.62,0-2.1-.1-4.2-.3-6.3-.2-2.1-.15-4.25.15-6.45.1-.5.15-1.05.15-1.65v-1.65c-.1-1.4-.08-2.8.08-4.2.15-1.4.32-2.8.52-4.2.2-.7.3-1.4.3-2.1s.05-1.4.15-2.1c.1-1.1.2-2.2.3-3.3.1-1.1.2-2.2.3-3.3.1-.6.17-1.17.23-1.72.05-.55.17-1.12.38-1.73.2-1.4.45-2.72.75-3.97.3-1.25.6-2.57.9-3.98.2-.5.3-.95.3-1.35s.1-.85.3-1.35c.4-1.8.87-3.6,1.42-5.4.55-1.8,1.12-3.55,1.73-5.25,0-.2.05-.4.15-.6.1-.2.2-.4.3-.6.4-.9.77-1.77,1.12-2.62.35-.85.72-1.67,1.12-2.47.8-1.4,1.7-2.75,2.7-4.05,1-1.3,2.05-2.5,3.15-3.6,2.5-2.2,5.45-3.3,8.85-3.3,1.2,0,2.42-.05,3.67-.15,1.25-.1,2.48-.05,3.68.15,1.6.2,2.85.75,3.75,1.65,1.9,1.9,2.7,4.25,2.4,7.05-.2,1.5-.55,2.9-1.05,4.2-.5,1.3-1.1,2.65-1.8,4.05-.2.3-.38.63-.53.97-.15.35-.33.73-.52,1.12-.4.8-.75,1.53-1.05,2.17-.3.65-.7,1.38-1.2,2.18-1.2,2.1-2.25,4.2-3.15,6.3-.5,1.4-1.15,2.73-1.95,3.97-.8,1.25-1.6,2.48-2.4,3.67-1.4,1.9-2.8,4.05-4.2,6.45-.5.8-1,1.65-1.5,2.55-.5.9-1,1.8-1.5,2.7-.8,1.1-1.45,2.3-1.95,3.6-.5,1.3-.95,2.6-1.35,3.9-.4,1.1-.63,2.23-.68,3.38-.05,1.15-.03,2.33.08,3.53v1.88c0,.65-.05,1.27-.15,1.88-.1,1.4-.18,2.77-.23,4.12-.05,1.35.02,2.73.23,4.12.2,1.6.35,3.2.45,4.8.1,1.6.25,3.25.45,4.95.2,1.6.38,3.18.53,4.72.15,1.55.42,3.08.83,4.58.1.6.27,1.18.52,1.72.25.55.47,1.12.67,1.73.3.5.72.8,1.28.9.55.1,1.07,0,1.58-.3,1-.7,1.9-1.6,2.7-2.7.4-.6.8-1.2,1.2-1.8.4-.6.8-1.2,1.2-1.8.8-1.4,1.65-2.78,2.55-4.12.9-1.35,1.65-2.78,2.25-4.28.8-1.7,1.5-3.42,2.1-5.17.6-1.75,1.15-3.57,1.65-5.47.1-.3.2-.6.3-.9.1-.3.2-.6.3-.9.4-1,.65-1.75.75-2.25.4-1.1.75-2.2,1.05-3.3.3-1.1.6-2.2.9-3.3.2-.8.7-1.2,1.5-1.2.5,0,.85.25,1.05.75.1.2.15.6.15,1.2-.2,1-.35,1.7-.45,2.1-.2,1-.43,1.95-.68,2.85-.25.9-.52,1.8-.82,2.7-.5,1.7-1.05,3.4-1.65,5.1-.6,1.7-1.2,3.4-1.8,5.1-.1.4-.35,1-.75,1.8-.9,1.7-1.8,3.38-2.7,5.02-.9,1.65-1.85,3.33-2.85,5.03-.8,1.2-1.6,2.38-2.4,3.53-.8,1.15-1.7,2.28-2.7,3.38-.9,1.2-1.98,2.12-3.22,2.77-1.25.65-2.58,1.12-3.98,1.42-.5.2-1.03.33-1.57.38-.55.05-1.08.13-1.58.23-1.5.2-2.85.15-4.05-.15-1.3-.3-2.3-.95-3-1.95-.8-1.1-1.5-2.27-2.1-3.52-.6-1.25-1.05-2.57-1.35-3.98-.5-2.1-.9-4.17-1.2-6.22-.3-2.05-.35-4.17-.15-6.38Zm25.65-74.7c-.9,1.1-1.63,2.28-2.17,3.53-.55,1.25-1.08,2.58-1.58,3.97-.2.6-.4,1.2-.6,1.8-.2.6-.4,1.15-.6,1.65-.1.3-.2.6-.3.9-.1.3-.2.6-.3.9-.8,2.7-1.55,5.38-2.25,8.03-.7,2.65-1.3,5.33-1.8,8.02-.2,1-.4,1.75-.6,2.25-.4,1.1-.63,2.23-.67,3.38-.05,1.15-.18,2.28-.38,3.38-.1.2-.13.35-.08.45.05.1.08.25.08.45.4.2.8.05,1.2-.45.3-.5.6-.97.9-1.42.3-.45.6-.92.9-1.42.3-.5.57-1.02.83-1.58.25-.55.57-1.07.97-1.58.7-1.2,1.4-2.37,2.1-3.52.7-1.15,1.35-2.33,1.95-3.53.8-1.4,1.55-2.78,2.25-4.12.7-1.35,1.45-2.72,2.25-4.12.7-1.2,1.32-2.4,1.88-3.6.55-1.2,1.17-2.4,1.88-3.6.5-1,.95-2,1.35-3,.4-1,.8-2.05,1.2-3.15.7-2.2.55-4.5-.45-6.9-.7-1.5-1.85-1.9-3.45-1.2-.6.3-1.18.65-1.72,1.05-.55.4-1.03.9-1.43,1.5-.2.3-.43.6-.67.9-.25.3-.48.65-.67,1.05Z"/><path class="cls-6" d="m322.67,781.86c.7.2.9.8.6,1.8-.2,1-.5,1.85-.9,2.55-.2.5-.43.9-.67,1.2-.25.3-.48.65-.68,1.05-.3.5-.6,1.05-.9,1.65-.3.6-.6,1.2-.9,1.8-.2.2-.33.45-.38.75-.05.3-.18.55-.38.75-.7.8-1.33,1.65-1.88,2.55-.55.9-1.23,1.75-2.02,2.55-.4.3-.75.68-1.05,1.12-.3.45-.6.88-.9,1.28-1.2,1.5-2.55,2.7-4.05,3.6-2.6,1.5-5.35,2.65-8.25,3.45-1,.2-1.7.3-2.1.3h-4.05c-1.3,0-2.6-.05-3.9-.15-3.3,0-6.35-.85-9.15-2.55-1.6-1-3.08-2.1-4.42-3.3-1.35-1.2-2.53-2.65-3.53-4.35-.2-.4-.35-.8-.45-1.2-.1-.4-.25-.8-.45-1.2-.1-.5-.15-.97-.15-1.42s-.1-.87-.3-1.27c-.6-1.9-.8-3.77-.6-5.62.2-1.85.55-3.68,1.05-5.48.2-.7.47-1.4.83-2.1.35-.7.72-1.4,1.12-2.1.1-.2.2-.4.3-.6.1-.2.2-.4.3-.6.7-1.9,1.72-3.5,3.07-4.8,1.35-1.3,2.87-2.5,4.58-3.6.8-.6,1.7-1.07,2.7-1.42,1-.35,2.05-.72,3.15-1.12.4-.1,1.05-.15,1.95-.15.9-.1,1.8-.15,2.7-.15h4.65c.8.2,1.55.35,2.25.45.7.1,1.45.2,2.25.3,2.2.4,3.85,1.75,4.95,4.05,1.4,2.8,1.65,5.65.75,8.55-.2.8-.45,1.53-.75,2.17-.3.65-.6,1.38-.9,2.17-.3.7-.75,1.28-1.35,1.73-.6.45-1.15.93-1.65,1.42-1.4,1.2-3.1,2.05-5.1,2.55-1.7.4-3.38.7-5.03.9-1.65.2-3.33.45-5.03.75-.5.1-.95.15-1.35.15h-1.35c-.4.9-.45,1.65-.15,2.25.4,1.1.75,2.15,1.05,3.15.3,1,.75,2,1.35,3,.5.8,1,1.4,1.5,1.8.4.4.77.75,1.12,1.05.35.3.72.65,1.12,1.05.6.6,1.27,1.1,2.02,1.5.75.4,1.52.7,2.33.9,1.4.5,3.05.5,4.95,0,1.4-.4,2.75-.95,4.05-1.65,1.3-.7,2.5-1.5,3.6-2.4.5-.3.9-.65,1.2-1.05.3-.4.65-.85,1.05-1.35.3-.3.57-.65.83-1.05.25-.4.57-.75.98-1.05,1.1-.8,1.95-1.9,2.55-3.3.2-.4.45-.77.75-1.12.3-.35.55-.77.75-1.28.2-.5.45-.95.75-1.35.3-.4.55-.85.75-1.35.5-.8.92-1.65,1.27-2.55.35-.9.77-1.75,1.28-2.55l.15-.3c.6-.9,1.3-1.15,2.1-.75Zm-37.5,3.3c-.2.7.05,1.05.75,1.05h1.05c1.7-.3,3.15-1.15,4.35-2.55.5-.5.97-1,1.42-1.5.45-.5.77-1.1.97-1.8.2-1,.42-1.95.67-2.85.25-.9.27-1.8.08-2.7.1-.4.15-.9.15-1.5,0-1-.25-1.8-.75-2.4-.5-.7-1.1-.75-1.8-.15l-.3.3c-.7,1-1.45,1.93-2.25,2.77-.8.85-1.3,1.93-1.5,3.23-.1.3-.2.58-.3.82-.1.25-.25.53-.45.83-.6,1-1.03,2.05-1.27,3.15-.25,1.1-.53,2.2-.83,3.3Z"/><path class="cls-6" d="m330.77,804.81c-.3,1.7-1.2,2.75-2.7,3.15-1.3.5-2.6.8-3.9.9-1.3.1-2.65-.2-4.05-.9-.5-.1-.9-.35-1.2-.75-1.3-.8-1.8-1.85-1.5-3.15.2-1.4.38-2.82.53-4.28.15-1.45.33-2.87.52-4.28.2-1.1.35-2.2.45-3.3.1-1.1.25-2.2.45-3.3.3-1.6.6-3.17.9-4.72.3-1.55.55-3.12.75-4.73.2-.9.35-1.82.45-2.77.1-.95.2-1.88.3-2.78.1-1.1.42-1.92.98-2.47.55-.55,1.22-.98,2.02-1.28,1.1-.3,2.22-.5,3.38-.6,1.15-.1,2.27,0,3.38.3.6.2,1.15.45,1.65.75.5.3,1,.65,1.5,1.05.6.6.8,1.4.6,2.4-.2,1-.38,1.95-.52,2.85-.15.9-.33,1.85-.53,2.85v1.2c.2-.3.38-.52.53-.67.15-.15.27-.32.38-.53.5-1,.97-2,1.42-3,.45-1,.92-2,1.42-3,.5-.9,1.02-1.77,1.58-2.62.55-.85,1.07-1.67,1.58-2.47.8-1.1,1.7-1.82,2.7-2.17,1-.35,2.1-.62,3.3-.83.6-.1,1.2-.15,1.8-.15h1.8c.2-.1.42-.12.67-.07.25.05.47.07.68.07,2.2.3,3.7,1.5,4.5,3.6.5,1.4.77,2.8.82,4.2.05,1.4-.03,2.85-.22,4.35-.2,1.4-.45,2.75-.75,4.05-.3,1.3-.55,2.65-.75,4.05-.1.5-.18.93-.22,1.28-.05.35.02.78.22,1.28.2,0,.4-.2.6-.6.2-.5.45-1.02.75-1.58.3-.55.55-1.12.75-1.72.6-1.6,1.28-3.15,2.03-4.65s1.52-3.05,2.33-4.65c.5-1.1.9-2.1,1.2-3,.5-1.1,1.12-2.15,1.88-3.15.75-1,1.47-2.05,2.17-3.15.5-.6,1.05-1.07,1.65-1.43.6-.35,1.25-.62,1.95-.82.6-.2,1.25-.32,1.95-.38.7-.05,1.35-.12,1.95-.23.5-.1.92-.15,1.27-.15s.72-.05,1.12-.15c1.6-.2,2.98.08,4.13.83,1.15.75,1.97,1.88,2.48,3.38.2.8.38,1.63.52,2.47.15.85.12,1.68-.07,2.48-.2,1.4-.43,2.73-.68,3.97-.25,1.25-.58,2.53-.97,3.83-.2.7-.4,1.38-.6,2.02-.2.65-.4,1.33-.6,2.03-.2.6-.35,1.18-.45,1.72-.1.55-.25,1.08-.45,1.58-.3,1.1-.6,2.17-.9,3.23-.3,1.05-.5,2.12-.6,3.22,0,.8-.05,1.63-.15,2.47-.1.85-.2,1.68-.3,2.48-.2.8-.3,1.65-.3,2.55s.1,1.75.3,2.55c.2.4.35.75.45,1.05.6,0,1-.05,1.2-.15,1.3-.7,2.45-1.55,3.45-2.55,1.4-1.4,2.65-2.95,3.75-4.65,1.1-1.7,2.15-3.4,3.15-5.1.7-1.3,1.32-2.57,1.88-3.83.55-1.25,1.17-2.48,1.88-3.67l.45-1.35c0-.2.1-.5.3-.9.2-.4.55-.57,1.05-.53.5.05.85.28,1.05.67.3.6.35,1.15.15,1.65-.2.5-.38.97-.53,1.42-.15.45-.33.93-.52,1.42-.5,1-.95,2-1.35,3-.4,1-.85,1.95-1.35,2.85-.6,1.1-1.25,2.23-1.95,3.38-.7,1.15-1.45,2.28-2.25,3.38-.8,1.1-1.63,2.1-2.47,3-.85.9-1.68,1.85-2.48,2.85-.2.4-.35.65-.45.75-1.1.6-2.15,1.25-3.15,1.95-1,.7-2.05,1.3-3.15,1.8-1.1.5-2.2.78-3.3.83-1.1.05-2.25.08-3.45.08-1.6,0-2.95-.25-4.05-.75-1.1-.5-1.8-1.4-2.1-2.7-.1-.2-.15-.55-.15-1.05v-4.35c0-1.5.05-2.95.15-4.35,0-.6.05-1.17.15-1.73.1-.55.2-1.12.3-1.72,0-.2.02-.45.08-.75.05-.3.08-.55.08-.75.1-1.3.32-2.55.67-3.75.35-1.2.72-2.45,1.12-3.75.1-.3.2-.62.3-.97.1-.35.2-.68.3-.98.5-1.6.92-3.17,1.27-4.72.35-1.55.77-3.08,1.28-4.58.3-1.4.35-2.6.15-3.6,0-.3-.13-.53-.38-.68-.25-.15-.48-.12-.67.08-.6.3-1.2.8-1.8,1.5-.9,1.6-1.65,3.15-2.25,4.65-.4,1-.75,1.7-1.05,2.1-1.1,1.5-2,3.08-2.7,4.73-.7,1.65-1.45,3.33-2.25,5.02-.5,1.1-1,2.15-1.5,3.15-.5,1-1,2.05-1.5,3.15-.7,1.4-1.2,2.85-1.5,4.35s-.5,3.05-.6,4.65v.3c0,1.4-.28,2.43-.83,3.07-.55.65-1.63,1.12-3.23,1.43-.9.2-1.83.28-2.77.22-.95-.05-1.93-.12-2.92-.22-.7,0-1.33-.15-1.88-.45-.55-.3-1.08-.7-1.58-1.2-.3-.3-.45-.65-.45-1.05-.1-.4-.15-.9-.15-1.5v-3.08c0-.95.05-1.92.15-2.92.1-1.1.17-2.17.22-3.23.05-1.05.17-2.12.38-3.22.1-.8.2-1.6.3-2.4.1-.8.2-1.6.3-2.4.2-.7.35-1.35.45-1.95.1-.6.2-1.25.3-1.95.1-.4.17-.8.22-1.2.05-.4.12-.85.23-1.35.2-.6.32-1.2.38-1.8.05-.6.17-1.15.38-1.65.3-1,.35-2.25.15-3.75-.6-.1-1.1.1-1.5.6-.5.6-.95,1.18-1.35,1.72-.4.55-.85,1.18-1.35,1.88-.8,1.1-1.4,2.3-1.8,3.6-.4,1.3-.85,2.6-1.35,3.9-.3.8-.63,1.63-.98,2.47-.35.85-.67,1.68-.97,2.48-.5,1.3-1,2.55-1.5,3.75-.5,1.2-.95,2.5-1.35,3.9,0,.2-.05.43-.15.68-.1.25-.1.52,0,.82,0,1.1-.1,2.15-.3,3.15-.2,1-.4,2.05-.6,3.15Z"/><path class="cls-6" d="m445.52,781.86c.7.2.9.8.6,1.8-.2,1-.5,1.85-.9,2.55-.2.5-.43.9-.67,1.2-.25.3-.48.65-.68,1.05-.3.5-.6,1.05-.9,1.65-.3.6-.6,1.2-.9,1.8-.2.2-.33.45-.38.75-.05.3-.18.55-.38.75-.7.8-1.33,1.65-1.88,2.55-.55.9-1.23,1.75-2.02,2.55-.4.3-.75.68-1.05,1.12-.3.45-.6.88-.9,1.28-1.2,1.5-2.55,2.7-4.05,3.6-2.6,1.5-5.35,2.65-8.25,3.45-1,.2-1.7.3-2.1.3h-4.05c-1.3,0-2.6-.05-3.9-.15-3.3,0-6.35-.85-9.15-2.55-1.6-1-3.08-2.1-4.42-3.3-1.35-1.2-2.53-2.65-3.53-4.35-.2-.4-.35-.8-.45-1.2-.1-.4-.25-.8-.45-1.2-.1-.5-.15-.97-.15-1.42s-.1-.87-.3-1.27c-.6-1.9-.8-3.77-.6-5.62.2-1.85.55-3.68,1.05-5.48.2-.7.47-1.4.83-2.1.35-.7.72-1.4,1.12-2.1.1-.2.2-.4.3-.6.1-.2.2-.4.3-.6.7-1.9,1.72-3.5,3.07-4.8,1.35-1.3,2.87-2.5,4.58-3.6.8-.6,1.7-1.07,2.7-1.42,1-.35,2.05-.72,3.15-1.12.4-.1,1.05-.15,1.95-.15.9-.1,1.8-.15,2.7-.15h4.65c.8.2,1.55.35,2.25.45.7.1,1.45.2,2.25.3,2.2.4,3.85,1.75,4.95,4.05,1.4,2.8,1.65,5.65.75,8.55-.2.8-.45,1.53-.75,2.17-.3.65-.6,1.38-.9,2.17-.3.7-.75,1.28-1.35,1.73-.6.45-1.15.93-1.65,1.42-1.4,1.2-3.1,2.05-5.1,2.55-1.7.4-3.38.7-5.03.9-1.65.2-3.33.45-5.03.75-.5.1-.95.15-1.35.15h-1.35c-.4.9-.45,1.65-.15,2.25.4,1.1.75,2.15,1.05,3.15.3,1,.75,2,1.35,3,.5.8,1,1.4,1.5,1.8.4.4.77.75,1.12,1.05.35.3.72.65,1.12,1.05.6.6,1.27,1.1,2.02,1.5.75.4,1.52.7,2.33.9,1.4.5,3.05.5,4.95,0,1.4-.4,2.75-.95,4.05-1.65,1.3-.7,2.5-1.5,3.6-2.4.5-.3.9-.65,1.2-1.05.3-.4.65-.85,1.05-1.35.3-.3.57-.65.83-1.05.25-.4.57-.75.98-1.05,1.1-.8,1.95-1.9,2.55-3.3.2-.4.45-.77.75-1.12.3-.35.55-.77.75-1.28.2-.5.45-.95.75-1.35.3-.4.55-.85.75-1.35.5-.8.92-1.65,1.27-2.55.35-.9.77-1.75,1.28-2.55l.15-.3c.6-.9,1.3-1.15,2.1-.75Zm-37.5,3.3c-.2.7.05,1.05.75,1.05h1.05c1.7-.3,3.15-1.15,4.35-2.55.5-.5.97-1,1.42-1.5.45-.5.77-1.1.97-1.8.2-1,.42-1.95.67-2.85.25-.9.27-1.8.08-2.7.1-.4.15-.9.15-1.5,0-1-.25-1.8-.75-2.4-.5-.7-1.1-.75-1.8-.15l-.3.3c-.7,1-1.45,1.93-2.25,2.77-.8.85-1.3,1.93-1.5,3.23-.1.3-.2.58-.3.82-.1.25-.25.53-.45.83-.6,1-1.03,2.05-1.27,3.15-.25,1.1-.53,2.2-.83,3.3Z"/><path class="cls-6" d="m469.89,773.76c.05-.7.17-1.45.38-2.25.2-1.1.27-2.17.22-3.22-.05-1.05-.07-2.12-.07-3.22-.1-.4-.3-.8-.6-1.2-.7.2-1.25.52-1.65.97-.4.45-.8.93-1.2,1.42-.3.4-.55.8-.75,1.2-.2.4-.4.8-.6,1.2-.5,1.2-1.05,2.38-1.65,3.53-.6,1.15-1.15,2.32-1.65,3.52-.7,1.5-1.38,2.98-2.02,4.42-.65,1.45-1.23,2.98-1.73,4.58-.2.9-.48,1.8-.83,2.7-.35.9-.67,1.75-.97,2.55-.4.9-.7,1.83-.9,2.78-.2.95-.4,1.88-.6,2.77-.2.8-.35,1.53-.45,2.18-.1.65-.2,1.38-.3,2.17-.5,2.3-1.9,3.6-4.2,3.9-.6.2-1.2.3-1.8.3h-1.8c-1.4,0-2.85-.5-4.35-1.5-.8-.5-1.2-1.15-1.2-1.95v-1.5c0-.5.1-1,.3-1.5.4-1.9.7-3.77.9-5.62.2-1.85.45-3.72.75-5.62.2-1.4.32-2.75.38-4.05.05-1.3.32-2.65.83-4.05,0-1.1.15-2.15.45-3.15.3-1,.55-2,.75-3,.3-.9.85-1.6,1.65-2.1l.6-.3c2.7-.7,5.4-.7,8.1,0,.4.1,1,.45,1.8,1.05.6.4.8.9.6,1.5,0,.6.02,1.2.08,1.8.05.6-.03,1.2-.23,1.8-.4.9-.4,1.65,0,2.25.5-1.4,1.07-2.67,1.73-3.83.65-1.15,1.27-2.37,1.88-3.67.5-.8.92-1.65,1.27-2.55.35-.9.77-1.8,1.28-2.7.5-1.1,1.15-2.1,1.95-3,.8-.9,1.7-1.75,2.7-2.55.8-.6,1.65-1.02,2.55-1.28.9-.25,1.85-.42,2.85-.53h1.65c.6,0,1.2.05,1.8.15,1,.2,1.9.53,2.7.97.8.45,1.45,1.23,1.95,2.33.7,1.6,1.2,3.23,1.5,4.88.3,1.65.25,3.33-.15,5.03-.1.6-.18,1.18-.22,1.72-.05.55-.08,1.12-.08,1.73,0,1.5-.15,3-.45,4.5s-.65,2.95-1.05,4.35c-.5,1.6-.93,3.2-1.28,4.8-.35,1.6-.63,3.25-.83,4.95-.1.7-.2,1.38-.3,2.03-.1.65-.2,1.33-.3,2.02-.2,1.1-.35,2.25-.45,3.45-.1,1.2-.2,2.35-.3,3.45,0,.4.05.65.15.75,0,.9.35,1.5,1.05,1.8.9.3,1.6.2,2.1-.3.6-.6,1.17-1.2,1.73-1.8.55-.6,1.07-1.2,1.57-1.8.8-.9,1.47-1.82,2.03-2.77.55-.95,1.07-1.92,1.58-2.92.2-.5.42-.92.67-1.28.25-.35.47-.72.67-1.12.2-.2.3-.4.3-.6.7-1.2,1.37-2.42,2.03-3.68.65-1.25,1.32-2.52,2.03-3.82.3-.7.6-1.37.9-2.03.3-.65.6-1.28.9-1.88.4-1.1,1-1.45,1.8-1.05.9.2,1.15.85.75,1.95-.2.4-.35.75-.45,1.05-.3.7-.6,1.38-.9,2.02-.3.65-.55,1.33-.75,2.03-.2.2-.33.43-.38.67-.05.25-.13.48-.23.67-1,1.8-1.95,3.55-2.85,5.25-.9,1.7-1.85,3.4-2.85,5.1-.8,1.3-1.6,2.55-2.4,3.75-.8,1.2-1.75,2.3-2.85,3.3-.5.4-.9.8-1.2,1.2-.3.4-.7.85-1.2,1.35-.4.6-.8.95-1.2,1.05-1.1.5-2.25.98-3.45,1.43-1.2.45-2.45.67-3.75.67h-4.5c-1.8,0-3-.8-3.6-2.4-.5-1.4-.88-2.85-1.12-4.35-.25-1.5-.28-3-.08-4.5.2-1.7.4-3.35.6-4.95.2-1.6.4-3.2.6-4.8.4-1.9.8-3.77,1.2-5.62.4-1.85.8-3.67,1.2-5.48l.9-5.4c.2-.7.32-1.4.38-2.1Z"/><path class="cls-6" d="m510.62,778.56c-.1.8-.15,1.57-.15,2.32s-.1,1.53-.3,2.33c-.5,2.5-.85,5-1.05,7.5-.2,2.5-.25,5-.15,7.5,0,.7-.03,1.4-.08,2.1-.05.7-.13,1.4-.22,2.1-.2,1.1-.28,2.15-.22,3.15.05,1,.12,2.05.22,3.15.1,1.5.2,3,.3,4.5.1,1.5.25,3,.45,4.5,0,1,.2,1.9.6,2.7.4.8.98,1.28,1.73,1.42.75.15,1.47-.08,2.17-.67.8-.6,1.5-1.25,2.1-1.95.6-.7,1.15-1.5,1.65-2.4.4-.6.77-1.17,1.12-1.73.35-.55.67-1.12.97-1.72.3-.3.65-.85,1.05-1.65.5-1,1-1.95,1.5-2.85.5-.9.9-1.85,1.2-2.85.3-1.1.72-2.17,1.28-3.22.55-1.05,1.02-2.07,1.42-3.08.2-.5.38-.95.53-1.35.15-.4.32-.8.52-1.2.2-.5.4-.97.6-1.42.2-.45.4-.92.6-1.42.4-1.1.85-2.2,1.35-3.3.5-1.1.9-2.2,1.2-3.3.2-.3.32-.62.38-.97.05-.35.17-.67.38-.98.1-.4.2-.77.3-1.12.1-.35.2-.72.3-1.12.3-.9.9-1.3,1.8-1.2.8,0,1.2.4,1.2,1.2-.2.6-.33,1.23-.38,1.88-.05.65-.18,1.28-.38,1.88-.5,1.5-1.12,3-1.88,4.5s-1.38,3-1.88,4.5c-.5,1.2-.98,2.4-1.42,3.6-.45,1.2-.93,2.45-1.43,3.75-.1.1-.15.22-.15.38s-.05.33-.15.52c-.5,1.4-.88,2.4-1.12,3-.25.6-.63,1.3-1.12,2.1-.8,1.5-1.63,2.98-2.47,4.42-.85,1.45-1.68,2.92-2.48,4.42-.6,1.2-1.35,2.3-2.25,3.3-.9,1-1.85,1.95-2.85,2.85-.5.5-1.05.97-1.65,1.42-.6.45-1.2.93-1.8,1.42-1.1.8-2.25,1.42-3.45,1.88-1.2.45-2.5.67-3.9.67-.6,0-1.18-.03-1.73-.07-.55-.05-1.12-.08-1.72-.08-1.1,0-2.15-.4-3.15-1.2-.5-.3-.9-.9-1.2-1.8-.5-1.5-.75-2.95-.75-4.35v-1.35c0-.4-.1-.8-.3-1.2-.3-.9-.5-1.82-.6-2.77-.1-.95-.2-1.92-.3-2.93-.2-1.9-.3-3.77-.3-5.62s-.05-3.77-.15-5.77c0-.7.03-1.37.08-2.03.05-.65.13-1.32.22-2.02v-.98c0-.35.05-.72.15-1.12,0-.5.03-1.02.08-1.58.05-.55.13-1.07.22-1.57v-.9c.2-1.4.3-2.75.3-4.05s.1-2.65.3-4.05c.2-1.4.35-2.75.45-4.05.1-1.3.3-2.65.6-4.05.4-1.7.72-3.45.97-5.25.25-1.8.53-3.55.83-5.25.3-1.4.47-2.77.52-4.12.05-1.35.23-2.72.53-4.12.1-.8,0-1.7-.3-2.7-1.7-.5-3.1-.7-4.2-.6-1.6,0-3.17-.1-4.72-.3-1.55-.2-3.12-.45-4.73-.75-.8-.1-1.52-.35-2.17-.75-.65-.4-1.22-.85-1.72-1.35-.7-.7-1.2-1.25-1.5-1.65-.8-.6-1.1-1.4-.9-2.4.2-1.4.58-2.65,1.12-3.75.55-1.1,1.38-2.05,2.47-2.85.8-.5,1.8-.85,3-1.05h1.88c.65,0,1.28.05,1.88.15.8.1,1.63.18,2.48.23.85.05,1.72.18,2.62.38h.3c.5.2.83.5.97.9.15.4.02.8-.38,1.2l-1.65,1.65c-.7.7-1.05,1.5-1.05,2.4s.35,1.75,1.05,2.55c.3.3.63.63.97.98.35.35.73.63,1.12.83,1,.6,2.03.67,3.08.22s1.67-1.22,1.88-2.33c.2-.9.4-1.77.6-2.62.2-.85.4-1.72.6-2.62.2-1,.4-1.95.6-2.85.2-.9.4-1.85.6-2.85.5-1.7.92-3.35,1.27-4.95.35-1.6.77-3.25,1.28-4.95.2-.7.4-1.35.6-1.95.2-.6.4-1.25.6-1.95.6-1.5,1.7-2.4,3.3-2.7.8-.2,1.6-.4,2.4-.6.8-.2,1.6-.25,2.4-.15.9,0,1.72.18,2.47.53.75.35,1.52.78,2.33,1.28.5.3.75.85.75,1.65,0,.4-.1.8-.3,1.2-.2.9-.45,1.8-.75,2.7-.3.9-.55,1.8-.75,2.7-.2.9-.4,1.83-.6,2.77-.2.95-.4,1.93-.6,2.92-.2.8-.43,1.58-.67,2.33-.25.75-.48,1.53-.67,2.33-.3.9-.5,1.78-.6,2.62-.1.85-.25,1.72-.45,2.62-.1.3-.15.75-.15,1.35.2.9.7,1.35,1.5,1.35h1.88c.65,0,1.28-.1,1.88-.3.8-.2,1.62-.38,2.47-.53.85-.15,1.67-.22,2.48-.22.5,0,1.25-.1,2.25-.3,1.2-.4,2.4-.67,3.6-.82,1.2-.15,2.4-.32,3.6-.53l4.95-.9c1-.2,1.95-.35,2.85-.45.9-.1,1.8-.25,2.7-.45.4,0,.8-.1,1.2-.3,2.5-.7,5.2-1.05,8.1-1.05,2.3-.1,4.62-.17,6.97-.22,2.35-.05,4.67-.08,6.98-.08,1.1,0,2.2.1,3.3.3,1.1.2,2.2.45,3.3.75,1.6.3,2.9.8,3.9,1.5,1.1.5,1.92,1.18,2.47,2.03.55.85.92,1.83,1.12,2.92.3,1.5-.2,2.4-1.5,2.7-1,.4-2.03.7-3.08.9-1.05.2-2.13.1-3.22-.3-.4-.1-.8-.17-1.2-.22-.4-.05-.85-.12-1.35-.22-2.1-.3-3.4-1.35-3.9-3.15-.7-2.3-2.35-3.7-4.95-4.2-1.1-.2-2.2-.32-3.3-.38-1.1-.05-2.2.08-3.3.38-.7.2-1.38.3-2.03.3s-1.33.05-2.02.15c-2.6.2-5.25.48-7.95.83-2.7.35-5.35.83-7.95,1.42-.9.2-1.83.43-2.78.67-.95.25-1.88.48-2.77.67-2.3.4-4.6.88-6.9,1.43-2.3.55-4.6,1.08-6.9,1.57-.2,0-.35.03-.45.08-.1.05-.25.08-.45.08-2.1.7-3.3,1.95-3.6,3.75l-.9,5.4c-.1,1.3-.18,2.58-.22,3.82-.05,1.25-.18,2.53-.38,3.83l-.9,5.4c-.1.6-.15,1.2-.15,1.8s-.05,1.15-.15,1.65Z"/><path class="cls-6" d="m561.92,781.71c.6,0,.9.35.9,1.05s-.15,1.35-.45,1.95c-.4,1.1-.8,2.15-1.2,3.15-.4,1-.85,2.05-1.35,3.15-.1.2-.2.4-.3.6-.1.2-.2.4-.3.6-.9,1.5-1.78,3.03-2.62,4.58-.85,1.55-1.83,3.03-2.92,4.42-.8,1.2-1.75,2.3-2.85,3.3-1.1,1-2.35,1.85-3.75,2.55-.8.5-1.57.93-2.32,1.27-.75.35-1.51.78-2.3,1.28-1.09.5-2.2.85-3.34,1.05-1.14.2-2.3.1-3.49-.3-.79-.2-1.48-.4-2.08-.6-1.58-.5-2.37-1.6-2.37-3.3,0-1.4-.02-2.85-.08-4.35-.05-1.5-.08-2.95-.08-4.35,0-.5.03-1,.08-1.5.05-.5.13-1,.22-1.5l1.34-15.75c0-.8.05-1.35.15-1.65.2-1.2.35-2.37.45-3.53.1-1.15.15-2.33.15-3.52.2-1,.35-1.7.45-2.1.29-1.2,1.09-1.95,2.38-2.25,1.19-.3,2.37-.5,3.56-.6,1.19-.1,2.42,0,3.71.3.3.2.62.3.96.3s.72.05,1.12.15c1.5.3,2.1,1.2,1.8,2.7,0,.1-.03.2-.08.3-.05.1-.08.25-.08.45-.5,2-.85,4.25-1.05,6.75,0,1.5-.05,3-.15,4.5-.1,1.5-.3,3-.6,4.5-.1.4-.13.75-.08,1.05.05.3.02.65-.08,1.05,0,.7-.03,1.38-.08,2.03-.05.65-.13,1.33-.22,2.02v1.8c0,1-.05,1.75-.15,2.25-.2,1.4-.28,2.73-.22,3.98.05,1.25.08,2.58.08,3.97,0,.1.1.35.3.75.2-.1.42-.15.67-.15s.47-.1.67-.3c.9-.7,1.77-1.35,2.62-1.95.85-.6,1.52-1.4,2.03-2.4.5-.8,1-1.52,1.5-2.17.5-.65.9-1.37,1.2-2.17l.9-1.35c.6-.9,1.15-1.85,1.65-2.85.2-.4.4-.77.6-1.12.2-.35.4-.72.6-1.12.3-.7.6-1.35.9-1.95.3-.6.6-1.2.9-1.8.2-.5.4-.92.6-1.28.2-.35.4-.77.6-1.27.4-.6.9-.8,1.5-.6Zm-24.75-19.65c-1.1-.2-1.8-.75-2.1-1.65-.2-.6-.25-1.1-.15-1.5.1-1.1.2-2.15.3-3.15.1-1,.25-2.05.45-3.15.1-.9.6-1.5,1.5-1.8.2,0,.35-.02.45-.08.1-.05.25-.08.45-.08,1.4-.1,2.82-.2,4.28-.3,1.45-.1,2.87,0,4.28.3.2.1.6.15,1.2.15,1.4.2,2,.9,1.8,2.1,0,.2-.1.5-.3.9-.4,1.2-.6,2.65-.6,4.35v1.2c0,.4-.05.8-.15,1.2-.3,1.1-1,1.7-2.1,1.8h-4.05c-.2,0-.33.03-.38.08-.05.05-.13.07-.23.07h-.3c-1.1-.1-1.85-.17-2.25-.22-.4-.05-1.1-.12-2.1-.22Z"/><path class="cls-6" d="m586.59,773.76c.05-.7.17-1.45.38-2.25.2-1.1.27-2.17.22-3.22-.05-1.05-.07-2.12-.07-3.22-.1-.4-.3-.8-.6-1.2-.7.2-1.25.52-1.65.97-.4.45-.8.93-1.2,1.42-.3.4-.55.8-.75,1.2-.2.4-.4.8-.6,1.2-.5,1.2-1.05,2.38-1.65,3.53-.6,1.15-1.15,2.32-1.65,3.52-.7,1.5-1.38,2.98-2.02,4.42-.65,1.45-1.23,2.98-1.73,4.58-.2.9-.48,1.8-.83,2.7-.35.9-.67,1.75-.97,2.55-.4.9-.7,1.83-.9,2.78-.2.95-.4,1.88-.6,2.77-.2.8-.35,1.53-.45,2.18-.1.65-.2,1.38-.3,2.17-.5,2.3-1.9,3.6-4.2,3.9-.6.2-1.2.3-1.8.3h-1.8c-1.4,0-2.85-.5-4.35-1.5-.8-.5-1.2-1.15-1.2-1.95v-1.5c0-.5.1-1,.3-1.5.4-1.9.7-3.77.9-5.62.2-1.85.45-3.72.75-5.62.2-1.4.32-2.75.38-4.05.05-1.3.32-2.65.83-4.05,0-1.1.15-2.15.45-3.15.3-1,.55-2,.75-3,.3-.9.85-1.6,1.65-2.1l.6-.3c2.7-.7,5.4-.7,8.1,0,.4.1,1,.45,1.8,1.05.6.4.8.9.6,1.5,0,.6.02,1.2.08,1.8.05.6-.03,1.2-.23,1.8-.4.9-.4,1.65,0,2.25.5-1.4,1.07-2.67,1.73-3.83.65-1.15,1.27-2.37,1.88-3.67.5-.8.92-1.65,1.27-2.55.35-.9.77-1.8,1.28-2.7.5-1.1,1.15-2.1,1.95-3,.8-.9,1.7-1.75,2.7-2.55.8-.6,1.65-1.02,2.55-1.28.9-.25,1.85-.42,2.85-.53h1.65c.6,0,1.2.05,1.8.15,1,.2,1.9.53,2.7.97.8.45,1.45,1.23,1.95,2.33.7,1.6,1.2,3.23,1.5,4.88.3,1.65.25,3.33-.15,5.03-.1.6-.18,1.18-.22,1.72-.05.55-.08,1.12-.08,1.73,0,1.5-.15,3-.45,4.5s-.65,2.95-1.05,4.35c-.5,1.6-.93,3.2-1.28,4.8-.35,1.6-.63,3.25-.83,4.95-.1.7-.2,1.38-.3,2.03-.1.65-.2,1.33-.3,2.02-.2,1.1-.35,2.25-.45,3.45-.1,1.2-.2,2.35-.3,3.45,0,.4.05.65.15.75,0,.9.35,1.5,1.05,1.8.9.3,1.6.2,2.1-.3.6-.6,1.17-1.2,1.73-1.8.55-.6,1.07-1.2,1.57-1.8.8-.9,1.47-1.82,2.03-2.77.55-.95,1.07-1.92,1.58-2.92.2-.5.42-.92.67-1.28.25-.35.47-.72.67-1.12.2-.2.3-.4.3-.6.7-1.2,1.37-2.42,2.03-3.68.65-1.25,1.32-2.52,2.03-3.82.3-.7.6-1.37.9-2.03.3-.65.6-1.28.9-1.88.4-1.1,1-1.45,1.8-1.05.9.2,1.15.85.75,1.95-.2.4-.35.75-.45,1.05-.3.7-.6,1.38-.9,2.02-.3.65-.55,1.33-.75,2.03-.2.2-.33.43-.38.67-.05.25-.13.48-.23.67-1,1.8-1.95,3.55-2.85,5.25-.9,1.7-1.85,3.4-2.85,5.1-.8,1.3-1.6,2.55-2.4,3.75-.8,1.2-1.75,2.3-2.85,3.3-.5.4-.9.8-1.2,1.2-.3.4-.7.85-1.2,1.35-.4.6-.8.95-1.2,1.05-1.1.5-2.25.98-3.45,1.43-1.2.45-2.45.67-3.75.67h-4.5c-1.8,0-3-.8-3.6-2.4-.5-1.4-.88-2.85-1.12-4.35-.25-1.5-.28-3-.08-4.5.2-1.7.4-3.35.6-4.95.2-1.6.4-3.2.6-4.8.4-1.9.8-3.77,1.2-5.62.4-1.85.8-3.67,1.2-5.48l.9-5.4c.2-.7.32-1.4.38-2.1Z"/><path class="cls-6" d="m663.62,781.86c.7.2.9.8.6,1.8-.2,1-.5,1.85-.9,2.55-.2.5-.43.9-.67,1.2-.25.3-.48.65-.68,1.05-.3.5-.6,1.05-.9,1.65-.3.6-.6,1.2-.9,1.8-.2.2-.33.45-.38.75-.05.3-.18.55-.38.75-.7.8-1.33,1.65-1.88,2.55-.55.9-1.23,1.75-2.02,2.55-.4.3-.75.68-1.05,1.12-.3.45-.6.88-.9,1.28-1.2,1.5-2.55,2.7-4.05,3.6-2.6,1.5-5.35,2.65-8.25,3.45-1,.2-1.7.3-2.1.3h-4.05c-1.3,0-2.6-.05-3.9-.15-3.3,0-6.35-.85-9.15-2.55-1.6-1-3.08-2.1-4.42-3.3-1.35-1.2-2.53-2.65-3.53-4.35-.2-.4-.35-.8-.45-1.2-.1-.4-.25-.8-.45-1.2-.1-.5-.15-.97-.15-1.42s-.1-.87-.3-1.27c-.6-1.9-.8-3.77-.6-5.62.2-1.85.55-3.68,1.05-5.48.2-.7.47-1.4.83-2.1.35-.7.72-1.4,1.12-2.1.1-.2.2-.4.3-.6.1-.2.2-.4.3-.6.7-1.9,1.72-3.5,3.07-4.8,1.35-1.3,2.87-2.5,4.58-3.6.8-.6,1.7-1.07,2.7-1.42,1-.35,2.05-.72,3.15-1.12.4-.1,1.05-.15,1.95-.15.9-.1,1.8-.15,2.7-.15h4.65c.8.2,1.55.35,2.25.45.7.1,1.45.2,2.25.3,2.2.4,3.85,1.75,4.95,4.05,1.4,2.8,1.65,5.65.75,8.55-.2.8-.45,1.53-.75,2.17-.3.65-.6,1.38-.9,2.17-.3.7-.75,1.28-1.35,1.73-.6.45-1.15.93-1.65,1.42-1.4,1.2-3.1,2.05-5.1,2.55-1.7.4-3.38.7-5.03.9-1.65.2-3.33.45-5.03.75-.5.1-.95.15-1.35.15h-1.35c-.4.9-.45,1.65-.15,2.25.4,1.1.75,2.15,1.05,3.15.3,1,.75,2,1.35,3,.5.8,1,1.4,1.5,1.8.4.4.77.75,1.12,1.05.35.3.72.65,1.12,1.05.6.6,1.27,1.1,2.02,1.5.75.4,1.52.7,2.33.9,1.4.5,3.05.5,4.95,0,1.4-.4,2.75-.95,4.05-1.65,1.3-.7,2.5-1.5,3.6-2.4.5-.3.9-.65,1.2-1.05.3-.4.65-.85,1.05-1.35.3-.3.57-.65.83-1.05.25-.4.57-.75.98-1.05,1.1-.8,1.95-1.9,2.55-3.3.2-.4.45-.77.75-1.12.3-.35.55-.77.75-1.28.2-.5.45-.95.75-1.35.3-.4.55-.85.75-1.35.5-.8.92-1.65,1.27-2.55.35-.9.77-1.75,1.28-2.55l.15-.3c.6-.9,1.3-1.15,2.1-.75Zm-37.5,3.3c-.2.7.05,1.05.75,1.05h1.05c1.7-.3,3.15-1.15,4.35-2.55.5-.5.97-1,1.42-1.5.45-.5.77-1.1.97-1.8.2-1,.42-1.95.67-2.85.25-.9.27-1.8.08-2.7.1-.4.15-.9.15-1.5,0-1-.25-1.8-.75-2.4-.5-.7-1.1-.75-1.8-.15l-.3.3c-.7,1-1.45,1.93-2.25,2.77-.8.85-1.3,1.93-1.5,3.23-.1.3-.2.58-.3.82-.1.25-.25.53-.45.83-.6,1-1.03,2.05-1.27,3.15-.25,1.1-.53,2.2-.83,3.3Z"/></g></svg>