<svg id="Layer_1" data-name="Layer 1" xmlns="http://www.w3.org/2000/svg" viewBox="0 0 2000 2000"><defs><style>.cls-1{fill:#0053f9;}.cls-2{fill:#fff;}</style></defs><rect class="cls-1" y="-0.5" width="2000" height="2000" transform="translate(2000 1999) rotate(180)"/><circle class="cls-2" cx="968.98" cy="986.9" r="367.37"/><path class="cls-2" d="M1017.07,1032h354.7a0,0,0,0,1,0,0v330.83a23.88,23.88,0,0,1-23.88,23.88h-307a23.88,23.88,0,0,1-23.88-23.88V1032a0,0,0,0,1,0,0Z" transform="translate(-505.3 1198.79) rotate(-45)"/><circle class="cls-2" cx="1454.37" cy="917.59" r="24.96"/><circle class="cls-2" cx="536.56" cy="827.23" r="41.6"/><circle class="cls-2" cx="585.3" cy="1289.38" r="19.41"/><path class="cls-1" d="M1228.26,960.56a70.56,70.56,0,0,0-99.79,99.78c.67.67,1.36,1.31,2,2,.3.35.61.71,1,1l26.94,26.94-86.48,86.48-25.53-25.52a18.93,18.93,0,0,0-1.64-1.47c-.89-1-1.81-2-2.77-3a70.56,70.56,0,1,0-3.45,103l.13.13,33.26-33.27,183.69,183.7,20-19.95-183.7-183.7,86.49-86.48,183.69,183.69,20-20-183.7-183.7,33.26-33.26-.12-.12A70.56,70.56,0,0,0,1228.26,960.56Zm-266.1,266.09a42.33,42.33,0,1,1,59.87,0A42.34,42.34,0,0,1,962.16,1226.65Zm246.14-186.26a42.33,42.33,0,1,1,0-59.87A42.34,42.34,0,0,1,1208.3,1040.39Z"/><rect class="cls-2" x="1155.19" y="1351.69" width="403.98" height="39.34" rx="19.43" transform="translate(-572.19 1361.33) rotate(-45)"/><rect class="cls-2" x="1203.01" y="1399.52" width="403.98" height="39.34" rx="19.43" transform="translate(-592 1409.16) rotate(-45)"/><rect class="cls-2" x="847.38" y="320.83" width="25.34" height="168.91" rx="1.31" transform="translate(-34.68 726.85) rotate(-45)"/><rect class="cls-2" x="847.38" y="320.83" width="25.34" height="168.91" rx="1.31" transform="translate(1181.62 1300.01) rotate(-135)"/><rect class="cls-2" x="974.82" y="1406.5" width="15.2" height="101.34" rx="0.79" transform="translate(-742.63 1121.47) rotate(-45)"/><rect class="cls-2" x="974.82" y="1406.5" width="15.2" height="101.34" rx="0.79" transform="translate(646.72 3182.22) rotate(-135)"/></svg>